PathFileType	4	(X/Y/Z)	40_2_85_p0_0-326.trc
DataRate	CameraRate	NumFrames	NumMarkers	Units	OrigDataRate	OrigDataStartFrame	OrigNumFrames
39.0	39.0	5	27	m	39.0	122	327
Frame#	Time	RHip			RKnee			RAnkle			RBigToe			RSmallToe			RHeel			LHip			LKnee			LAnkle			LBigToe			LSmallToe			LHeel			Neck			Head			Nose			RShoulder			RElbow			RWrist			RThumb			RIndex			RPinky			LShoulder			LElbow			LWrist			LThumb			LIndex			LPinky			
		X1	Y1	Z1	X2	Y2	Z2	X3	Y3	Z3	X4	Y4	Z4	X5	Y5	Z5	X6	Y6	Z6	X7	Y7	Z7	X8	Y8	Z8	X9	Y9	Z9	X10	Y10	Z10	X11	Y11	Z11	X12	Y12	Z12	X13	Y13	Z13	X14	Y14	Z14	X15	Y15	Z15	X16	Y16	Z16	X17	Y17	Z17	X18	Y18	Z18	X19	Y19	Z19	X20	Y20	Z20	X21	Y21	Z21	X22	Y22	Z22	X23	Y23	Z23	X24	Y24	Z24	X25	Y25	Z25	X26	Y26	Z26	X27	Y27	Z27	
122	3.128205128205128	0.34387154771711725	0.5830082503551787	0.870230334367082	0.3138445144926211	0.7089141937365968	1.299495564446204	0.29714069465744114	0.802005740982305	1.693312853452524	0.3063960935912566	0.6498563008071286	1.7054529976348964	0.36449652530842247	0.6867269972350595	1.7132426865070405	0.27460640836662864	0.8952759250825335	1.7626784212783713	0.14165825767515572	0.5480056256023145	0.8755151068198003	0.11273398629611568	0.7229407054839802	1.311000746601488	0.10461266395829356	0.8437615707190608	1.7093347321875767	0.16235460101992347	0.6268589560502276	1.693207077647258	0.11539116258245888	0.6524968827132613	1.7039635211870894	0.1103946486748182	0.8933603756534438	1.7477537949987334	0.24893470439865562	0.4874250615324787	0.32741876015760124	0.2628666251324649	0.42300553832289756	0.1118479792275309	0.27921088874871974	0.3834244715261934	0.2336701017216013	0.3630491658559635	0.529716920909794	0.40024732519115097	0.4562946204736369	0.42046588799655443	0.6082156779919029	0.5315100312306742	0.28396797658544304	0.4601550984440075	0.5532918270404129	0.23372317731326261	0.3689970901009564	0.5693644077233523	0.25397565853574816	0.3675425840762803	0.5758217643085941	0.24115839661666477	0.384878646281864	0.10606993982959663	0.4447972479972608	0.40298439893160576	0.17418657595541548	0.29497395532035914	0.5824324975575289	0.25759599237680236	0.16991391775675574	0.4512129531160012	0.27798578151651704	0.09342870280108631	0.35887579865008623	0.27505774335793426	0.045579641392313824	0.34084250742840166	0.2908307050619416	0.053030753537838836	0.39609317869874866
123	3.1538461538461537	0.3517451831799885	0.5820243000518793	0.869694934167523	0.31157780265765606	0.6948207507436783	1.2962432167257925	0.2970137948552817	0.8019946639014508	1.6931244210127294	0.3061881553547877	0.6493937674801472	1.7054019077071416	0.36424918632524217	0.686562185847687	1.7133225288358778	0.2676742620402212	0.9093458109125611	1.763918037854261	0.1416256049229847	0.5482095664652872	0.8756734483422312	0.1126816558735288	0.7230899661210566	1.3112023109311572	0.10502721726897232	0.8396664840013845	1.698780978397828	0.16139997892333038	0.6127984102626975	1.6879539241904542	0.11532278616138684	0.6526926734948454	1.703715656896622	0.11038587885256955	0.8935493300836209	1.7474468102101988	0.25306124127566115	0.48953882135677973	0.32696611385178925	0.26304766713772737	0.4232926171853986	0.1118804037153041	0.27921580480817904	0.38173499336495165	0.23363094071490653	0.36873942037172874	0.5172720900371084	0.4036752903257156	0.45669296659526615	0.4267829767308616	0.619555365189578	0.5268771855810511	0.2819660423510657	0.466999780340241	0.542121931560848	0.20545034001578497	0.3844999657982319	0.5475623025822834	0.21621060129824476	0.3838562829825648	0.5498534391983231	0.22413254267082117	0.4419545328848177	0.10606248266151451	0.4452554311619839	0.40304142605079085	0.16161021602160228	0.2808544939163547	0.5885282818984356	0.2602229260306363	0.18310168350590952	0.4610880602855571	0.2837141914442769	0.11582517110591681	0.37232451494621577	0.2826924895639915	0.08400311220207292	0.3541869237645827	0.2964947472983646	0.06594661489288613	0.40243702176486784
124	3.1794871794871793	0.3462837506318166	0.5961719155897692	0.8715682471079137	0.3108678646461189	0.6957446210167856	1.3005531731234972	0.2971572886109857	0.801938945765164	1.6932992741439645	0.30552447823027773	0.6490601014550883	1.7008059184931523	0.3635051112306771	0.6860194297506323	1.7090952337005072	0.2757596024475558	0.9077738141657693	1.7619253294381378	0.14156424558357977	0.54813842921586	0.8755791701846218	0.11266064679972602	0.7232068225950059	1.311218379138722	0.10572262108071624	0.842932217700753	1.7045866791465696	0.16152001344214192	0.6126075570960325	1.6880083384556803	0.11651903394788489	0.6511569487761757	1.7002291997496877	0.11035664806271885	0.8935076122209784	1.7475070290482233	0.25325161734379475	0.48907473037367766	0.32627259003024633	0.2630745617883227	0.4213800019087077	0.10858223157727437	0.28435446815272325	0.369836841305731	0.2343294821637735	0.37257603536829104	0.5214424736596389	0.4070660794951564	0.45820277365192835	0.46984905592794574	0.6350787148392201	0.5163850149551904	0.28641437315544155	0.48821456009802583	0.5365551154499478	0.2271013099735612	0.38999711455462044	0.5442411380337706	0.21825307996834914	0.3971812433373608	0.5441367423918663	0.21279670069106102	0.4558567185613375	0.10615703507377736	0.44540442673296465	0.4029215141892225	0.14451767537551288	0.31668140042965015	0.6057125748420388	0.26017403512936904	0.18705189645868975	0.47125524402803803	0.2921000571464413	0.11317869391511025	0.39018876183537415	0.2993892581917041	0.09794699875150222	0.37268584884054756	0.3179511707218674	0.09554576532030959	0.4266790080258914
125	3.2051282051282053	0.3500261846973794	0.568474910935234	0.8648628932643584	0.31162860454052693	0.6949288208471041	1.2963718381141895	0.29718788097471893	0.8019306544157428	1.693314387904368	0.30570587150154327	0.65028513304081	1.7008539262419098	0.36377590167331025	0.6871754310385436	1.7092087971845722	0.27582676146933255	0.9077949125058319	1.7624558535964299	0.14198702419781176	0.54798646395177	0.8795033080108331	0.11257266565206456	0.7231873958439127	1.3113864688295904	0.10571707878870436	0.8429796368392314	1.7045825468779796	0.1614897904617473	0.6125962761398998	1.6879454458050345	0.11652250055249525	0.6511690833491289	1.7002327458231807	0.11045327213680241	0.8936414914487192	1.7475413973533847	0.24900868766024575	0.4891371396464811	0.3296263526671033	0.26305823936494094	0.4211764026651849	0.1084602571584279	0.2894303714691896	0.3581231667097468	0.23572244020100408	0.372708435382363	0.5205438434995658	0.4096667893009144	0.45842161247305135	0.4694633350007918	0.6428833473822458	0.49737354818845636	0.2957547615788576	0.5242595144691535	0.49778305941651246	0.2129675335285421	0.4222957737020703	0.5324076940216033	0.22126355361572306	0.4395020725884302	0.5292983361630162	0.19957267676810844	0.4882105911247444	0.1016648857948497	0.4432638222519445	0.4064311684433367	0.13332547549402748	0.3050127292030635	0.6191737447029939	0.2559094618898665	0.19805357810767615	0.48828321372127237	0.30767345224335496	0.13160938855819307	0.41510934364532187	0.3115030033789352	0.11042416918246815	0.405523395743011	0.3224234793986519	0.10099727287492104	0.45059832801998845
126	3.230769230769231	0.3584830093472452	0.5694688308628117	0.8678249688958428	0.31395174284653876	0.7087224377791622	1.2993801266601606	0.2978501300536419	0.8008959952669233	1.6974816248913756	0.3077391340274765	0.6620643450220082	1.7049845704014914	0.3661212174149802	0.6991729462635866	1.713386089031963	0.2767013885267456	0.9107099453523712	1.767124602678762	0.14554300480531493	0.5501521553159762	0.8759321738497591	0.11370928185374032	0.7218211408750399	1.3072301217681062	0.10574363637353887	0.8429186544928887	1.7045958136735637	0.16258500298085674	0.6267822685425645	1.6930907969375364	0.11556038848324844	0.6522047195716378	1.7038437312827648	0.10293428103098191	0.9113538363439763	1.7543013123679705	0.25348360508098744	0.4684245558778766	0.34362525441840147	0.263112767963527	0.42089058750681596	0.10856230008948303	0.2944158423028985	0.34638318087136766	0.23702533444174045	0.38947894362522906	0.5172197018298685	0.4241849066497807	0.4560378920910617	0.5077870050542826	0.665489627657698	0.4838948324342897	0.31984724955222954	0.5807421115171169	0.4722163442568967	0.21791590310634087	0.48965558778561774	0.4935791249325021	0.18402673205988565	0.5034398766118932	0.4824787629161926	0.21687568192372583	0.551163320138989	0.0943322343989122	0.4449134633748401	0.41335016814763503	0.11751870902693638	0.3101215143293063	0.6354467634683347	0.2548606873541214	0.19882367542305102	0.5427593032056011	0.31536197076399664	0.14048270815267944	0.4362207181790895	0.3205453172083952	0.12401801396140887	0.429713669687054	0.3360441651484451	0.1498663869763972	0.49911623808288647
